# xmcd CD database file generated by Grip 3.2.0
# 
# Track frame offsets:
#       150
#       9425
#       22775
#       39927
#       56322
#       81280
#       100135
#       117052
#       136834
#       154523
#       174341
#       191623
#       207106
#       224406
#       247977
#       259560
#       276233
#       290303
#       303146
# 
# Disc length: 4251 seconds
# 
# Revision: 2
# Processed by: cddbd v1.5.2PL0 Copyright (c) Steve Scherf et al.
# Submitted via: Grip 3.2.0
# 
DISCID=ea109913
DTITLE=Harald Lesch - Physik für die Westentasche CD2
DYEAR=2006
DGENRE=Other
TTITLE0=Einheitensysteme
TTITLE1=Felder
TTITLE2=Bezugssyteme
TTITLE3=Symmetrien und Erhaltungsgrößen
TTITLE4=Kausalität
TTITLE5=Raum
TTITLE6=Die Zeit
TTITLE7=Gravitation und Schwerkraft
TTITLE8=(Fast) alles ist relativ
TTITLE9=Gekrümmter Raum und verbogene Zeit
TTITLE10=Schwarze Löscher
TTITLE11=Stephen Hawkings Branenwelten
TTITLE12=Welle-Teilchen-Dualismus
TTITLE13=Heisenbergs Unschärferelation
TTITLE14=Der Tunneleffekt
TTITLE15=Schrödingers Katze
TTITLE16=Die elektromagnetische Wechselwirkung
TTITLE17=Die Starke Wechselwirkung
TTITLE18=Die Schwache Wechselwirkung
EXTD=YEAR: 2006
EXTT0=
EXTT1=
EXTT2=
EXTT3=
EXTT4=
EXTT5=
EXTT6=
EXTT7=
EXTT8=
EXTT9=
EXTT10=
EXTT11=
EXTT12=
EXTT13=
EXTT14=
EXTT15=
EXTT16=
EXTT17=
EXTT18=
PLAYORDER=
